<?xml version="1.0" encoding="UTF-8" standalone="no"?>
<!-- Created with Inkscape (http://www.inkscape.org/) -->
<svg xmlns:inkscape="http://www.inkscape.org/namespaces/inkscape" xmlns:rdf="http://www.w3.org/1999/02/22-rdf-syntax-ns#" xmlns="http://www.w3.org/2000/svg" xmlns:xlink="http://www.w3.org/1999/xlink" xmlns:ns1="http://sozi.baierouge.fr" xmlns:cc="http://creativecommons.org/ns#" xmlns:sodipodi="http://sodipodi.sourceforge.net/DTD/sodipodi-0.dtd" xmlns:dc="http://purl.org/dc/elements/1.1/" id="svg2" xml:space="preserve" viewBox="0 0 40 40" version="1.1" inkscape:version="0.91 r13725">
  <defs id="defs6">
    <radialGradient id="radialGradient38" gradientUnits="userSpaceOnUse" cy="-4.5278" cx="5.8765" gradientTransform="matrix(.68512 -.95912 .95912 .68512 10.366 35.643)" r=".96780">
      <stop id="stop40" style="stop-color:#7db51c" offset="0"/>
      <stop id="stop42" style="stop-color:#466610" offset="1"/>
    </radialGradient>
    <radialGradient id="radialGradient56" gradientUnits="userSpaceOnUse" cy="-4.5337" cx="5.6963" gradientTransform="matrix(.68512 -.95912 .95912 .68512 10.377 35.651)" r=".96780">
      <stop id="stop58" style="stop-color:#7db51c" offset="0"/>
      <stop id="stop60" style="stop-color:#6a9918" offset="1"/>
    </radialGradient>
  </defs>
  <g id="g10" transform="matrix(1.25,0,0,-1.25,0,40)">
    <g id="g12">
      <path id="path14" style="fill-rule:evenodd;fill:#d66915" d="m22.777 27.73c3.223-1.57 5.305-3.515 6.25-5.832 1.571-3.734 1.707-7.543 0.411-11.433-1.649-5.031-5.579-7.684-11.786-7.957-5.738-0.274-9.98 1.019-12.73 3.89-2.121 2.2-3.203 5.028-3.242 8.485-0.039 3.574 0.882 6.601 2.769 9.078 1.809 2.434 4.321 4.105 7.543 5.008 3.574 0.98 7.172 0.57 10.785-1.239z" inkscape:connector-curvature="0"/>
      <path id="path16" style="fill-rule:evenodd;fill:#eb7805" d="m26.312 22.957c0.2-0.078 0.356-0.316 0.473-0.707 0.156-0.316 0.293-0.59 0.414-0.824 0.039-0.156 0.039-0.414 0-0.766-0.117-0.906-0.156-1.476-0.117-1.711 0.039-0.117 0.137-0.293 0.293-0.531 0.117-0.234 0.219-0.57 0.297-1 0.156-0.785 0.195-1.453 0.117-2.004-0.082-0.512-0.117-1.238-0.117-2.18 0-0.121 0.039-0.394 0.117-0.828 0.078-0.312 0.078-0.609 0-0.883-0.082-0.316-0.414-0.707-1.004-1.179-0.785-0.586-1.195-0.903-1.238-0.942-0.668-0.824-1-1.472-1-1.945 0-0.195-0.395-0.609-1.18-1.238-0.746-0.59-1.336-0.961-1.769-1.117l-2.59-1.063c-0.434-0.195-0.809-0.215-1.121-0.059-0.512 0.235-0.903 0.352-1.18 0.352-0.902 0-1.863 0.141-2.887 0.414-0.195 0.078-0.449 0.039-0.765-0.117-0.352-0.117-0.766-0.137-1.239-0.059-0.273 0.039-1.039 0.059-2.296 0.059-0.278 0-0.61 0.137-1.004 0.414-0.391 0.234-0.668 0.469-0.825 0.707-0.039 0.234-0.078 0.41-0.117 0.527-0.117 0.2-0.472 0.493-1.062 0.887-0.668 0.391-1.059 0.648-1.176 0.766-0.082 0.039-0.277 0.234-0.59 0.59-0.473 0.429-0.808 0.785-1.004 1.058-0.312 0.434-0.469 1.004-0.469 1.711 0 0.629-0.039 1.141-0.117 1.531-0.082 0.352-0.14 0.688-0.179 1.004 0 0.196-0.118 0.766-0.352 1.707-0.234 0.824-0.316 1.375-0.234 1.653 0.156 0.507 0.293 1.156 0.41 1.945 0.199 1.492 0.433 2.394 0.707 2.707 0.039 0.043 0.18 0.316 0.414 0.828 0.195 0.469 0.43 0.766 0.707 0.883 0.234 0.117 0.433 0.254 0.59 0.414 0.312 0.273 0.629 0.527 0.941 0.766 0.156 0.117 0.512 0.57 1.063 1.355 0.351 0.551 0.882 0.844 1.589 0.883 1.336 0.117 2.711 0.453 4.126 1 1.609 0.629 3.261 0.691 4.949 0.18h0.297c0.628-0.079 1.296-0.317 2.004-0.707 0.824-0.473 1.335-0.731 1.531-0.77 0.351-0.117 0.746-0.215 1.179-0.293 0.313-0.117 0.508-0.352 0.59-0.707 0.078-0.313 0.157-0.492 0.235-0.531 0.39-0.157 0.668-0.293 0.824-0.41 0.394-0.239 0.629-0.473 0.707-0.707 0.117-0.356 0.238-0.59 0.355-0.711 0.118-0.075 0.352-0.196 0.703-0.352z" inkscape:connector-curvature="0"/>
      <path id="path18" style="fill-rule:evenodd;fill:#f98b0e" d="m15.824 26.73c0.903-0.238 1.551-0.453 1.946-0.648l1.472-1.121c0.707-0.551 1.219-0.863 1.531-0.941 0.239-0.04 0.649-0.415 1.239-1.122 0.59-0.628 0.984-1.16 1.179-1.589 0.274-0.551 0.489-1.375 0.649-2.477 0.195-0.707 0.273-1.57 0.234-2.594-0.039-0.902-0.136-1.472-0.293-1.707-0.117-0.117-0.277-0.57-0.472-1.355-0.157-0.707-0.235-1.219-0.235-1.531 0-0.356-0.531-0.825-1.594-1.415-0.39-0.238-0.882-0.609-1.472-1.121-0.668-0.629-1.156-1.062-1.473-1.297-0.433-0.316-0.746-0.453-0.941-0.414-0.707 0.079-1.18 0.118-1.418 0.118-0.664-0.039-1.039-0.118-1.117-0.235-0.157-0.351-0.254-0.531-0.293-0.531-0.2-0.195-0.532-0.254-1.004-0.176-0.59 0.117-1.098 0.196-1.532 0.235-0.472 0.082-1.101 0.058-1.886-0.059-0.469 0-1.059 0.098-1.766 0.297-0.316 0.078-0.57 0.254-0.769 0.527-0.274 0.356-0.45 0.571-0.528 0.653-0.867 0.273-1.437 0.625-1.711 1.058-0.351 0.317-0.687 0.688-1 1.121-0.199 0.235-0.414 0.883-0.652 1.942-0.195 1.101-0.332 1.769-0.41 2.007-0.078 0.274-0.117 0.567-0.117 0.883 0.039 0.313 0.058 0.551 0.058 0.707-0.277 0.942-0.375 1.61-0.297 2.004 0.039 0.43 0.356 1.258 0.946 2.473 0.234 0.433 0.312 0.906 0.234 1.414-0.039 0.355 0.039 0.652 0.234 0.887 0.317 0.195 0.551 0.39 0.707 0.589 0.317 0.274 0.868 0.864 1.653 1.766 0.351 0.395 0.648 0.57 0.883 0.531 0.156-0.039 0.332-0.078 0.531-0.117 0.234 0.039 1.058 0.453 2.472 1.238 0.395 0.157 0.79 0.235 1.18 0.235 0.59-0.039 1.043-0.039 1.356 0 0.59 0.078 1.414 0 2.476-0.235z" inkscape:connector-curvature="0"/>
      <path id="path20" style="fill-rule:evenodd;fill:#ba5106" d="m15.234 27.438-0.882-0.059c-0.59 0-1.731-0.395-3.418-1.18-0.239-0.117-0.551-0.336-0.946-0.648-0.273-0.239-0.609-0.395-1-0.473-0.668-0.195-1.414-0.629-2.242-1.297 0.043 0.157 0.238 0.414 0.59 0.766 0.394 0.355 0.906 0.629 1.535 0.828l-0.766 0.117c-0.238 0.039-0.453 0.02-0.648-0.058l-0.297-0.122 0.59 0.356c0.512 0.195 0.98 0.219 1.414 0.059 0.434-0.118 0.609-0.098 0.531 0.058-0.078 0.277-0.078 0.453 0 0.531 0.117 0.118 0.157 0.235 0.117 0.352-0.078 0.238-0.117 0.434-0.117 0.59 0.039 0.433 0.196 0.867 0.473 1.297l-0.121-0.235c-0.117-0.511-0.059-0.984 0.18-1.414 0.156-0.355 0.195-0.355 0.117 0-0.039 0.156 0.156 0.551 0.59 1.18 0.429 0.664 0.863 1.019 1.296 1.059-0.785-0.903-1.179-1.532-1.179-1.887l0.351-0.059c0.356 0 0.828 0.059 1.418 0.176 0.942 0.199 1.746 0.219 2.414 0.063z" inkscape:connector-curvature="0"/>
      <path id="path22" style="fill-rule:evenodd;fill:#ba5106" d="m11.168 27.672c0.316 0.355 0.687 0.551 1.121 0.59 0.117-0.235 0.098-0.473-0.059-0.707-0.156-0.278-0.492-0.532-1.003-0.766l1.535 0.117c0.429-0.039 0.863-0.019 1.297 0.059-1.024-0.668-1.77-1.004-2.243-1.004-0.273-0.039-0.589 0.019-0.941 0.18l-0.414 0.234c-0.117-0.902-0.449-1.434-1-1.59-0.356-0.117-0.688-0.156-1-0.117l-0.356 0.059c0.235 0.312 0.649 0.628 1.235 0.941l0.887 0.59-1.829 0.293 0.356 0.179c0.312 0.079 0.605 0.079 0.883 0l0.59-0.058 0.941 1z" inkscape:connector-curvature="0"/>
      <path id="path24" style="fill-rule:evenodd;fill:#7db51c" d="m10.758 28.027c0.156 0.235 0.43 0.508 0.824 0.825 0.43-0.317 0.57-0.571 0.41-0.766l-1-1.004 1.59 0.297c0.551 0.039 0.984 0 1.297-0.117-0.234-0.278-0.746-0.551-1.531-0.828-0.473-0.157-0.922-0.215-1.356-0.176l-0.531 0.117c-0.117-0.434-0.371-0.785-0.766-1.059-0.394-0.277-1.043-0.375-1.945-0.296-0.117 0.039-0.098 0.175 0.059 0.414 0.355 0.507 0.945 0.882 1.769 1.117-0.355-0.039-0.668 0-0.945 0.117l-0.586 0.473 0.648 0.117c0.508 0.078 0.981 0 1.414-0.235l0.649 1.004z" inkscape:connector-curvature="0"/>
      <path id="path26" style="fill-rule:evenodd;fill:#6a9918" d="m12.582 27.082c-0.59-0.117-1.117-0.273-1.59-0.473l-0.531-0.234c-0.117-0.434-0.371-0.785-0.766-1.063-0.394-0.273-1.043-0.371-1.945-0.292l-0.059 0.058 0.59 0.234c0.512 0.2 1.141 0.551 1.887 1.063l0.883 0.707 1.531 0.297c0.551 0.039 0.984 0 1.297-0.117l-1.297-0.18z" inkscape:connector-curvature="0"/>
      <g id="g28">
        <g id="g30">
          <g id="g36">
            <path id="path44" style="fill-rule:evenodd;fill:url(#radialGradient38)" d="m10.344 26.906 0.648 0.176c0.313 0.039 0.43-0.039 0.352-0.234-0.117-0.239-0.332-0.434-0.649-0.59-0.55-0.235-0.922-0.196-1.117 0.117-0.082 0.117-0.043 0.219 0.117 0.293 0.078 0.039 0.293 0.121 0.649 0.238z" inkscape:connector-curvature="0"/>
          </g>
        </g>
      </g>
      <g id="g46">
        <g id="g48">
          <g id="g54">
            <path id="path62" style="fill-rule:evenodd;fill:url(#radialGradient56)" d="m10.227 27.258c0.234 0.078 0.492 0.078 0.765 0 0.274-0.117 0.332-0.274 0.176-0.469-0.234-0.238-0.508-0.394-0.824-0.473-0.352-0.117-0.61-0.097-0.766 0.059s-0.199 0.297-0.117 0.414c0.078 0.117 0.332 0.273 0.766 0.469z" inkscape:connector-curvature="0"/>
          </g>
        </g>
      </g>
      <path id="path64" style="fill-rule:evenodd;fill:#d7e34f" d="m10.52 27.199c0.238-0.039 0.058-0.156-0.532-0.351-0.117 0.039-0.078 0.117 0.117 0.234 0.161 0.078 0.297 0.117 0.415 0.117z" inkscape:connector-curvature="0"/>
      <path id="path66" style="fill-rule:evenodd;fill:#f5a510" d="m16.355 23.664c0.625-0.391 1.512-1.453 2.649-3.184 0.16-0.156 0.297-0.546 0.414-1.175 0.117-0.867 0.238-1.473 0.355-1.828 0.274-0.903-0.117-2.102-1.179-3.594-0.156-0.434-0.61-0.926-1.356-1.477-0.156-0.113-0.629-0.468-1.414-1.058-0.238-0.196-0.551-0.278-0.945-0.235-0.512 0.078-0.941 0.137-1.297 0.176-0.312 0-0.629-0.156-0.941-0.473-0.317-0.39-0.629-0.586-0.942-0.586-0.668-0.082-1.336-0.121-2.004-0.121-1.062 0-1.789 0.098-2.183 0.297-0.391 0.196-0.61 0.313-0.649 0.352-0.117 0.117-0.273 0.414-0.468 0.883-0.118 0.277-0.551 0.886-1.297 1.828-0.668 0.824-0.985 1.336-0.942 1.531 0.039 0.199 0.039 0.414 0 0.648l-0.179 0.59c-0.079 0.434-0.039 0.828 0.117 1.18l0.531 1c0.117 0.156 0.176 0.375 0.176 0.648v0.77c0.039 0.312 0.355 0.844 0.945 1.59 0.668 0.707 1.02 1.117 1.059 1.238 0.121 0.156 0.316 0.254 0.59 0.293 0.355 0 0.648 0.059 0.886 0.176 0.235 0.082 0.469 0.336 0.707 0.769 0.235 0.352 0.766 0.551 1.59 0.586 0.395 0.16 0.766 0.239 1.121 0.239 0.707 0.039 1.098 0.058 1.176 0.058 0.906 0.117 2.066-0.258 3.48-1.121z" inkscape:connector-curvature="0"/>
      <path id="path68" style="fill-rule:evenodd;fill:#f7b61c" d="m14.41 21.246c0.117-0.391 0.215-0.605 0.293-0.644 0.199-0.161 0.297-0.375 0.297-0.649 0.039-0.355 0.117-0.629 0.234-0.828 0.157-0.273 0.219-0.551 0.176-0.824-0.039-0.196-0.078-0.473-0.117-0.824l0.062-0.883c0-0.356-0.082-0.629-0.238-0.828-0.117-0.157-0.371-0.469-0.765-0.942-0.356-0.433-0.786-0.707-1.297-0.824-0.59-0.121-0.981-0.199-1.18-0.238-0.234-0.078-0.469-0.235-0.707-0.469-0.273-0.238-0.609-0.336-1-0.297-0.59 0.078-1.121 0.156-1.59 0.238-0.551 0.039-0.867 0.118-0.945 0.235-0.039 0.117-0.137 0.215-0.293 0.293-0.356 0.16-0.57 0.609-0.649 1.355-0.039 0.238-0.117 0.414-0.234 0.531-0.238 0.274-0.414 0.493-0.531 0.649-0.199 0.351-0.258 0.609-0.18 0.765 0.082 0.157 0.117 0.297 0.117 0.415 0.117 0.746 0.239 1.238 0.356 1.472 0.117 0.156 0.254 0.254 0.414 0.293h0.176l0.351 1.418c0.117 0.391 0.238 0.586 0.356 0.586 0.156 0 0.254 0.024 0.293 0.063 0.316 0.507 0.746 0.785 1.296 0.824 1.258 0.078 2.043 0.097 2.36 0.058 0.469-0.039 0.547-0.078 0.234-0.117 0.473-0.039 1.102-0.156 1.887-0.351 0.43-0.043 0.707-0.2 0.824-0.477z" inkscape:connector-curvature="0"/>
      <path id="path70" style="fill-rule:evenodd;fill:#f3c563" d="m7.516 17.535c-0.118 0.117-0.18 0.414-0.18 0.883 0.316 0.906 0.492 1.394 0.531 1.477 0.078 0.156 0.219 0.273 0.414 0.351 0.235 0.078 0.371 0.156 0.414 0.234 0.117 0.278 0.45 0.532 1 0.766 0.668 0.316 1.239 0.297 1.707-0.058 0.239-0.196 0.493-0.489 0.77-0.883 0.078-0.039 0.293-0.137 0.648-0.293 0.235-0.082 0.391-0.219 0.469-0.414 0.078-0.157 0.039-0.434-0.117-0.825-0.156-0.511-0.234-0.843-0.234-1.003 0-0.352-0.079-0.684-0.235-1-0.117-0.313-0.707-0.473-1.769-0.473-0.356-0.039-0.629-0.156-0.825-0.352-0.238-0.316-0.433-0.492-0.589-0.531-0.278-0.078-0.512-0.039-0.708 0.117-0.238 0.196-0.433 0.336-0.589 0.414-0.395 0.157-0.512 0.532-0.356 1.117 0.039 0.161 0 0.278-0.117 0.356-0.117 0.039-0.195 0.078-0.234 0.117z" inkscape:connector-curvature="0"/>
      <path id="path72" style="fill-rule:evenodd;fill:#ffffff" d="m10.695 19.305c0.512-0.078 0.707-0.239 0.59-0.473-0.156-0.273-0.39-0.355-0.707-0.234-0.273 0.078-0.371 0.214-0.297 0.41 0.043 0.238 0.18 0.336 0.414 0.297z" inkscape:connector-curvature="0"/>
      <path id="path74" style="fill-rule:evenodd;fill:#ffffff" d="m11.168 17.949c0.195-0.082 0.234-0.199 0.117-0.355-0.078-0.156-0.215-0.196-0.414-0.117-0.195 0.039-0.351 0.136-0.469 0.293-0.117 0.199-0.117 0.335 0 0.414 0.118 0.078 0.371 0 0.766-0.235z" inkscape:connector-curvature="0"/>
      <path id="path76" style="fill-rule:evenodd;fill:#ffffff" d="m11.816 18.656c0.352 0.039 0.571-0.117 0.649-0.472 0.117-0.317 0.039-0.532-0.235-0.649-0.199-0.117-0.394-0.058-0.589 0.176-0.2 0.316-0.336 0.512-0.414 0.59-0.157 0.234 0.039 0.355 0.589 0.355z" inkscape:connector-curvature="0"/>
      <path id="path78" style="fill-rule:evenodd;fill:#ffffff" d="m13.527 18.949c0.196-0.039 0.274-0.137 0.235-0.293-0.078-0.16-0.196-0.297-0.356-0.414-0.156-0.117-0.293-0.097-0.41 0.059-0.156 0.117-0.238 0.273-0.238 0.472 0 0.235 0.258 0.293 0.769 0.176z" inkscape:connector-curvature="0"/>
      <path id="path80" style="fill-rule:evenodd;fill:#ffffff" d="m12.699 20.305c0.278-0.078 0.434-0.235 0.473-0.473 0.078-0.234 0-0.371-0.234-0.41-0.551-0.195-0.868-0.18-0.946 0.058-0.078 0.196-0.039 0.391 0.117 0.59 0.121 0.196 0.317 0.274 0.59 0.235z" inkscape:connector-curvature="0"/>
      <path id="path82" style="fill-rule:evenodd;fill:#ffffff" d="m11.344 19.48c-0.469 0.079-0.688 0.317-0.649 0.708 0 0.273 0.16 0.511 0.473 0.707 0.273 0.195 0.473 0.175 0.59-0.059 0.156-0.274 0.176-0.57 0.058-0.883-0.117-0.355-0.273-0.512-0.472-0.473z" inkscape:connector-curvature="0"/>
      <path id="path84" style="fill-rule:evenodd;fill:#ffffff" d="m10.578 21.129c0.078-0.234 0.039-0.43-0.117-0.59-0.156-0.117-0.332-0.156-0.531-0.117-0.352 0.16-0.352 0.512 0 1.062 0.117 0.196 0.238 0.235 0.355 0.118 0.117-0.079 0.215-0.235 0.293-0.473z" inkscape:connector-curvature="0"/>
      <path id="path86" style="fill-rule:evenodd;fill:#ffffff" d="m9.812 19.598c0.278-0.434 0.219-0.727-0.175-0.883-0.356-0.117-0.59-0.039-0.707 0.234-0.078 0.239 0.019 0.453 0.293 0.649 0.277 0.199 0.472 0.199 0.589 0z" inkscape:connector-curvature="0"/>
      <path id="path88" style="fill-rule:evenodd;fill:#ffffff" d="m9.812 18.359c0.235-0.078 0.333-0.234 0.293-0.468 0-0.039-0.097-0.239-0.293-0.59-0.039-0.156-0.156-0.176-0.351-0.059-0.199 0.156-0.316 0.332-0.356 0.531-0.039 0.157 0.02 0.313 0.176 0.469 0.199 0.117 0.375 0.156 0.531 0.117z" inkscape:connector-curvature="0"/>
      <path id="path90" style="fill-rule:evenodd;fill:#ffffff" d="m10.578 17.242c0.199-0.039 0.336-0.199 0.414-0.472 0.039-0.274 0-0.45-0.117-0.532-0.156-0.078-0.336-0.078-0.531 0-0.196 0.082-0.293 0.2-0.293 0.356-0.082 0.508 0.094 0.726 0.527 0.648z" inkscape:connector-curvature="0"/>
      <path id="path92" style="fill-rule:evenodd;fill:#ffffff" d="m12.051 17.004c0.16-0.117 0.258-0.293 0.297-0.531 0-0.274-0.137-0.43-0.414-0.469-0.274-0.039-0.43 0-0.469 0.117 0 0.195-0.02 0.371-0.063 0.531-0.039 0.196 0 0.332 0.121 0.41 0.118 0.079 0.293 0.059 0.528-0.058z" inkscape:connector-curvature="0"/>
      <path id="path94" style="fill-rule:evenodd;fill:#ffffff" d="m13.113 17.242c0.235-0.039 0.356-0.156 0.356-0.355 0-0.196-0.082-0.352-0.239-0.473-0.117-0.078-0.253-0.059-0.41 0.059-0.117 0.121-0.199 0.257-0.238 0.414-0.078 0.316 0.098 0.433 0.531 0.355z" inkscape:connector-curvature="0"/>
      <path id="path96" style="fill-rule:evenodd;fill:#ffffff" d="m8.93 16.594c0-0.551-0.176-0.649-0.532-0.297-0.156 0.199-0.117 0.355 0.118 0.473 0.277 0.117 0.414 0.058 0.414-0.176z" inkscape:connector-curvature="0"/>
      <path id="path98" style="fill-rule:evenodd;fill:#ffffff" d="m9.637 16.18c0.195 0 0.293-0.176 0.293-0.532 0-0.39-0.196-0.429-0.59-0.117-0.156 0.117-0.195 0.274-0.117 0.473 0.117 0.156 0.257 0.215 0.414 0.176z" inkscape:connector-curvature="0"/>
      <path id="path100" style="fill-rule:evenodd;fill:#ffffff" d="m8.398 18.598c0.079-0.078 0.118-0.2 0.118-0.356-0.039-0.195-0.118-0.312-0.235-0.351-0.156-0.043-0.258 0-0.297 0.117 0 0.156-0.019 0.273-0.058 0.351-0.039 0.079 0.019 0.157 0.179 0.235 0.157 0.082 0.254 0.082 0.293 0.004z" inkscape:connector-curvature="0"/>
      <path id="path102" style="fill-rule:evenodd;fill:#ffffff" d="m8.633 19.895c0-0.239-0.117-0.356-0.352-0.356-0.156 0-0.277 0.078-0.355 0.234-0.078 0.157-0.078 0.297 0 0.415 0.078 0.117 0.219 0.156 0.414 0.117 0.195-0.078 0.293-0.215 0.293-0.41z" inkscape:connector-curvature="0"/>
      <path id="path104" style="fill-rule:evenodd;fill:#ffffff" d="m9.105 21.129c0.196-0.352 0.079-0.488-0.351-0.41-0.238 0.078-0.258 0.195-0.059 0.351 0.196 0.16 0.332 0.176 0.41 0.059z" inkscape:connector-curvature="0"/>
      <path id="path106" style="fill-rule:evenodd;fill:#ffffff" d="m9.164 21.777c0.117 0.039 0.195 0 0.234-0.117 0-0.117-0.078-0.176-0.234-0.176-0.156-0.039-0.215 0-0.176 0.118 0 0.078 0.059 0.136 0.176 0.175z" inkscape:connector-curvature="0"/>
      <path id="path108" style="fill-rule:evenodd;fill:#ffffff" d="m7.277 17.004c0.082-0.43 0.059-0.649-0.058-0.649-0.078 0-0.157 0.118-0.235 0.356-0.039 0.156-0.019 0.293 0.059 0.41 0.117 0.121 0.195 0.082 0.234-0.117z" inkscape:connector-curvature="0"/>
      <path id="path110" style="fill-rule:evenodd;fill:#ffffff" d="m8.871 15.121c0.274-0.121 0.371-0.258 0.293-0.414-0.078-0.117-0.215-0.16-0.41-0.117-0.16 0.039-0.199 0.156-0.121 0.351 0.039 0.2 0.121 0.258 0.238 0.18z" inkscape:connector-curvature="0"/>
      <path id="path112" style="fill-rule:evenodd;fill:#f5a510" d="m14.172 20.777c0.277-0.277 0.336-0.492 0.18-0.648-0.157-0.195-0.336-0.117-0.532 0.234-0.195 0.317-0.234 0.512-0.117 0.59 0.117 0.117 0.274 0.059 0.469-0.176z" inkscape:connector-curvature="0"/>
      <path id="path114" style="fill-rule:evenodd;fill:#f5a510" d="m14.703 19.48c0.16-0.234 0.137-0.453-0.058-0.648-0.196-0.234-0.333-0.258-0.411-0.059-0.078 0.157-0.062 0.352 0.059 0.59 0.156 0.196 0.293 0.235 0.41 0.117z" inkscape:connector-curvature="0"/>
      <path id="path116" style="fill-rule:evenodd;fill:#f5a510" d="m14.82 17.242c-0.039-0.316-0.117-0.57-0.234-0.769-0.156-0.157-0.293-0.157-0.414 0-0.078 0.16 0 0.375 0.238 0.648 0.274 0.277 0.41 0.317 0.41 0.121z" inkscape:connector-curvature="0"/>
      <path id="path118" style="fill-rule:evenodd;fill:#f5a510" d="m12.348 15.707c0.429-0.117 0.55-0.352 0.351-0.707-0.156-0.312-0.469-0.531-0.941-0.648-0.356-0.118-0.59-0.098-0.707 0.058-0.078 0.117-0.098 0.336-0.059 0.649 0.078 0.589 0.531 0.808 1.356 0.648z" inkscape:connector-curvature="0"/>
      <path id="path120" style="fill-rule:evenodd;fill:#f5a510" d="m13.645 15.18c0.55 0.039 0.39-0.18-0.473-0.649-0.156 0-0.156 0.098 0 0.293 0.156 0.235 0.316 0.356 0.473 0.356z" inkscape:connector-curvature="0"/>
      <path id="path122" style="fill-rule:evenodd;fill:#f5a510" d="m7.926 14.293c0.078-0.273 0.019-0.43-0.176-0.469-0.234 0-0.414 0.098-0.531 0.293s-0.059 0.352 0.176 0.473c0.238 0.117 0.414 0.019 0.531-0.297z" inkscape:connector-curvature="0"/>
      <path id="path124" style="fill-rule:evenodd;fill:#f5a510" d="m6.809 18.656c-0.039-0.082-0.118-0.375-0.239-0.886-0.039-0.157-0.156-0.137-0.351 0.062-0.199 0.195-0.117 0.43 0.234 0.707 0.356 0.352 0.473 0.391 0.356 0.117z" inkscape:connector-curvature="0"/>
      <path id="path126" style="fill-rule:evenodd;fill:#f7b61c" d="m12.879 13.586c0.551-0.234 0.551-0.449 0-0.648-0.551-0.235-0.867-0.215-0.945 0.058-0.039 0.195 0.058 0.356 0.296 0.473 0.196 0.156 0.411 0.195 0.649 0.117z" inkscape:connector-curvature="0"/>
      <path id="path128" style="fill-rule:evenodd;fill:#f7b61c" d="m10.227 12.586c0.273-0.156 0.195-0.316-0.239-0.473-0.429-0.117-0.707-0.078-0.824 0.117-0.078 0.235-0.019 0.415 0.176 0.532 0.238 0.117 0.531 0.058 0.887-0.176z" inkscape:connector-curvature="0"/>
      <path id="path130" style="fill-rule:evenodd;fill:#f7b61c" d="m11.402 12.348c0.317 0.043 0.434-0.055 0.356-0.293-0.078-0.274-0.254-0.375-0.531-0.293-0.196 0.078-0.254 0.195-0.176 0.351 0.078 0.157 0.195 0.235 0.351 0.235z" inkscape:connector-curvature="0"/>
      <path id="path132" style="fill-rule:evenodd;fill:#f7b61c" d="m16.473 17.004c-0.039-0.391-0.137-0.649-0.297-0.766-0.114-0.117-0.215-0.078-0.293 0.117-0.039 0.2 0.058 0.415 0.293 0.649 0.199 0.277 0.297 0.277 0.297 0z" inkscape:connector-curvature="0"/>
      <path id="path134" style="fill-rule:evenodd;fill:#f7b61c" d="m16.297 20.07c0.234-0.433 0.215-0.769-0.059-1.004-0.277-0.195-0.492-0.136-0.648 0.18-0.16 0.274-0.098 0.527 0.176 0.766 0.273 0.273 0.453 0.293 0.531 0.058z" inkscape:connector-curvature="0"/>
      <path id="path136" style="fill-rule:evenodd;fill:#f7b61c" d="m15.59 22.191c0.234-0.078 0.312-0.332 0.234-0.765-0.078-0.395-0.258-0.512-0.531-0.356-0.234 0.118-0.293 0.356-0.176 0.707 0.117 0.356 0.274 0.493 0.473 0.414z" inkscape:connector-curvature="0"/>
      <path id="path138" style="fill-rule:evenodd;fill:#f7b61c" d="m16.414 21.188c0.313 0.082 0.512-0.059 0.59-0.411 0.039-0.355-0.141-0.492-0.531-0.414-0.352 0.039-0.493 0.176-0.414 0.414 0.039 0.235 0.16 0.371 0.355 0.411z" inkscape:connector-curvature="0"/>
      <path id="path140" style="fill-rule:evenodd;fill:#f7b61c" d="m17.652 16.004c0-0.59-0.199-0.984-0.59-1.18-0.394-0.234-0.589-0.136-0.589 0.297 0.039 0.313 0.254 0.606 0.648 0.883 0.391 0.234 0.57 0.234 0.531 0z" inkscape:connector-curvature="0"/>
      <path id="path142" style="fill-rule:evenodd;fill:#f7b61c" d="m14.703 14.117c0.668 0 0.887-0.238 0.649-0.707-0.274-0.472-0.629-0.668-1.059-0.59-0.395 0.039-0.512 0.274-0.355 0.707 0.156 0.395 0.414 0.59 0.765 0.59z" inkscape:connector-curvature="0"/>
      <path id="path144" style="fill-rule:evenodd;fill:#f7b61c" d="m7.16 13.117c0.199-0.355 0.176-0.531-0.058-0.531-0.274 0-0.493 0.117-0.649 0.352-0.117 0.199-0.058 0.335 0.176 0.414 0.199 0.078 0.375 0 0.531-0.235z" inkscape:connector-curvature="0"/>
      <path id="path146" style="fill-rule:evenodd;fill:#f5a510" d="m14.234 10.582c0.707-0.117 0.766-0.414 0.176-0.883-0.59-0.472-1.062-0.551-1.414-0.238-0.355 0.277-0.316 0.551 0.117 0.828 0.352 0.234 0.727 0.332 1.121 0.293z" inkscape:connector-curvature="0"/>
      <path id="path148" style="fill-rule:evenodd;fill:#f5a510" d="m19.301 13.117c-0.039-0.551-0.254-1.004-0.649-1.355-0.39-0.356-0.609-0.336-0.648 0.058-0.039 0.352 0.176 0.727 0.648 1.118 0.473 0.433 0.688 0.492 0.649 0.179z" inkscape:connector-curvature="0"/>
      <path id="path150" style="fill-rule:evenodd;fill:#f5a510" d="m21.188 12.82c0.351-0.195 0.234-0.57-0.356-1.117-0.551-0.512-0.902-0.57-1.059-0.18-0.156 0.395-0.039 0.747 0.352 1.063 0.355 0.352 0.707 0.43 1.063 0.234z" inkscape:connector-curvature="0"/>
      <path id="path152" style="fill-rule:evenodd;fill:#f5a510" d="m21.895 19.184c0.039-0.746-0.157-1.235-0.59-1.473-0.391-0.195-0.629 0.039-0.707 0.707s0.117 1.102 0.59 1.297c0.429 0.195 0.667 0.019 0.707-0.531z" inkscape:connector-curvature="0"/>
      <path id="path154" style="fill-rule:evenodd;fill:#f5a510" d="m21.48 16.77c-0.078-0.395-0.214-0.727-0.41-1.004-0.199-0.274-0.394-0.235-0.59 0.121-0.156 0.351-0.019 0.644 0.415 0.883 0.429 0.273 0.625 0.273 0.585 0z" inkscape:connector-curvature="0"/>
      <path id="path156" style="fill-rule:evenodd;fill:#f5a510" d="m9.812 8.695c0.473-0.195 0.61-0.492 0.415-0.883-0.239-0.394-0.59-0.531-1.063-0.414-0.469 0.118-0.59 0.414-0.352 0.883 0.235 0.473 0.567 0.61 1 0.414z" inkscape:connector-curvature="0"/>
      <path id="path158" style="fill-rule:evenodd;fill:#f5a510" d="m6.16 10.406c0.156-0.277 0.176-0.472 0.059-0.59-0.117-0.156-0.297-0.14-0.531 0.059-0.196 0.195-0.215 0.391-0.059 0.59 0.195 0.234 0.371 0.215 0.531-0.059z" inkscape:connector-curvature="0"/>
      <path id="path160" style="fill-rule:evenodd;fill:#f5a510" d="m11.758 8.344c0.394 0 0.512-0.219 0.351-0.653-0.156-0.39-0.429-0.546-0.824-0.468-0.312 0.117-0.39 0.332-0.234 0.648 0.195 0.313 0.433 0.473 0.707 0.473z" inkscape:connector-curvature="0"/>
      <path id="path162" style="fill-rule:evenodd;fill:#f5a510" d="m17.473 8.93c0.433-0.039 0.511-0.196 0.238-0.469-0.277-0.277-0.57-0.395-0.883-0.356-0.316 0.04-0.355 0.2-0.121 0.473 0.195 0.274 0.453 0.391 0.766 0.352z" inkscape:connector-curvature="0"/>
      <path id="path164" style="fill-rule:evenodd;fill:#f5a510" d="m22.66 16.238c0.078-0.55 0.039-0.922-0.117-1.117-0.117-0.238-0.277-0.141-0.473 0.293-0.195 0.391-0.156 0.688 0.118 0.883 0.238 0.238 0.394 0.215 0.472-0.059z" inkscape:connector-curvature="0"/>
      <path id="path166" style="fill-rule:evenodd;fill:#f5a510" d="m19.773 23.133c0.59-0.551 0.707-0.942 0.352-1.18-0.391-0.234-0.766-0.156-1.117 0.238-0.278 0.313-0.278 0.61 0 0.883 0.273 0.278 0.527 0.297 0.765 0.059z" inkscape:connector-curvature="0"/>
      <path id="path168" style="fill-rule:evenodd;fill:#f98b0e" d="m20.891 8.105c0.589-0.156 0.55-0.433-0.118-0.824-0.668-0.39-1.078-0.449-1.238-0.176-0.156 0.235-0.078 0.489 0.238 0.766 0.313 0.274 0.688 0.352 1.118 0.234z" inkscape:connector-curvature="0"/>
      <path id="path170" style="fill-rule:evenodd;fill:#f98b0e" d="m17.945 6.574c0.785-0.039 1.063-0.336 0.825-0.883-0.235-0.589-0.668-0.785-1.297-0.589-0.547 0.156-0.727 0.453-0.528 0.882 0.235 0.434 0.567 0.629 1 0.59z" inkscape:connector-curvature="0"/>
      <path id="path172" style="fill-rule:evenodd;fill:#f98b0e" d="m6.926 7.988c0.273-0.156 0.312-0.316 0.117-0.472-0.195-0.118-0.391-0.078-0.59 0.117-0.195 0.156-0.215 0.297-0.058 0.414 0.156 0.078 0.335 0.058 0.531-0.059z" inkscape:connector-curvature="0"/>
      <path id="path174" style="fill-rule:evenodd;fill:#f98b0e" d="m23.66 8.105c0.985-0.234 0.652-0.628-1-1.179-0.156 0.082-0.078 0.316 0.235 0.707 0.316 0.355 0.57 0.512 0.765 0.472z" inkscape:connector-curvature="0"/>
      <path id="path176" style="fill-rule:evenodd;fill:#eb7805" d="m26.551 8.871c0.156-0.43 0.039-0.805-0.356-1.117-0.39-0.316-0.668-0.356-0.824-0.117-0.156 0.195-0.019 0.551 0.414 1.058 0.391 0.473 0.649 0.532 0.766 0.176z" inkscape:connector-curvature="0"/>
      <path id="path178" style="fill-rule:evenodd;fill:#eb7805" d="m28.379 19.598c0.117-0.313 0.098-0.571-0.063-0.766-0.117-0.156-0.234-0.117-0.351 0.117-0.117 0.235-0.098 0.492 0.058 0.766 0.118 0.277 0.235 0.238 0.356-0.117z" inkscape:connector-curvature="0"/>
      <path id="path180" style="fill-rule:evenodd;fill:#eb7805" d="m28.848 15.473c0.355-0.313 0.433-0.785 0.238-1.414-0.16-0.629-0.375-0.766-0.648-0.414-0.239 0.394-0.278 0.847-0.122 1.355 0.122 0.512 0.297 0.668 0.532 0.473z" inkscape:connector-curvature="0"/>
      <path id="path182" style="fill-rule:evenodd;fill:#eb7805" d="m28.316 21.367c0.473-0.472 0.395-0.707-0.234-0.707-0.316 0-0.394 0.156-0.234 0.473 0.117 0.351 0.273 0.429 0.468 0.234z" inkscape:connector-curvature="0"/>
      <path id="path184" style="fill-rule:evenodd;fill:#eb7805" d="m27.789 10.465c0.117-0.199 0.059-0.453-0.18-0.77-0.195-0.273-0.371-0.312-0.531-0.117-0.156 0.238-0.117 0.531 0.121 0.887 0.235 0.312 0.43 0.312 0.59 0z" inkscape:connector-curvature="0"/>
      <path id="path186" style="fill-rule:evenodd;fill:#eb7805" d="m23.957 5.57c0.551-0.078 0.609-0.332 0.176-0.765-0.473-0.391-0.903-0.508-1.297-0.352-0.313 0.117-0.274 0.352 0.117 0.707 0.356 0.313 0.688 0.449 1.004 0.41z" inkscape:connector-curvature="0"/>
      <path id="path188" style="fill-rule:evenodd;fill:#eb7805" d="m15.883 4.156c0.433-0.078 0.414-0.312-0.059-0.707-0.433-0.351-0.844-0.39-1.238-0.117-0.352 0.273-0.332 0.492 0.059 0.648 0.355 0.196 0.765 0.254 1.238 0.176z" inkscape:connector-curvature="0"/>
      <path id="path190" style="fill-rule:evenodd;fill:#eb7805" d="m6.512 6.574c0.316-0.433 0.336-0.668 0.058-0.707-0.312-0.078-0.55 0.039-0.707 0.352-0.156 0.277-0.136 0.453 0.059 0.531 0.199 0.117 0.394 0.059 0.59-0.176z" inkscape:connector-curvature="0"/>
      <path id="path192" style="fill-rule:evenodd;fill:#f98b0e" d="m15.59 23.723c0.824-0.469 0.863-0.668 0.117-0.59-0.785 0.121-1.18 0.316-1.18 0.59 0 0.238 0.118 0.336 0.352 0.297 0.238 0 0.473-0.098 0.711-0.297z" inkscape:connector-curvature="0"/>
      <path id="path194" style="fill-rule:evenodd;fill:#f98b0e" d="m17.062 22.484c0.235-0.234 0.196-0.429-0.117-0.589-0.316-0.118-0.511-0.059-0.59 0.179-0.078 0.235-0.019 0.41 0.176 0.531 0.157 0.157 0.332 0.118 0.531-0.121z" inkscape:connector-curvature="0"/>
      <path id="path196" style="fill-rule:evenodd;fill:#f98b0e" d="m17.594 21.484c0.195-0.156 0.254-0.316 0.176-0.472-0.04-0.157-0.176-0.215-0.415-0.176-0.195 0.039-0.234 0.176-0.117 0.41 0.117 0.238 0.235 0.316 0.356 0.238z" inkscape:connector-curvature="0"/>
      <path id="path198" style="fill-rule:evenodd;fill:#f98b0e" d="m18.949 20.895c0.078-0.356 0.039-0.551-0.117-0.59-0.16-0.039-0.316 0.058-0.473 0.297-0.117 0.195-0.117 0.371 0 0.527 0.039 0.078 0.098 0.141 0.176 0.18h0.176c0.117-0.039 0.199-0.18 0.238-0.414z" inkscape:connector-curvature="0"/>
      <path id="path200" style="fill-rule:evenodd;fill:#f98b0e" d="m18.711 19.598c0.156-0.313 0.082-0.532-0.234-0.649-0.278-0.117-0.415-0.019-0.415 0.297 0 0.274 0.079 0.469 0.239 0.59 0.156 0.074 0.293-0.004 0.41-0.238z" inkscape:connector-curvature="0"/>
      <path id="path202" style="fill-rule:evenodd;fill:#f98b0e" d="m17.473 18.891c0.238-0.274 0.297-0.571 0.179-0.883-0.117-0.278-0.316-0.317-0.59-0.117-0.273 0.195-0.316 0.449-0.117 0.765 0.196 0.274 0.371 0.352 0.528 0.235z" inkscape:connector-curvature="0"/>
      <path id="path204" style="fill-rule:evenodd;fill:#f98b0e" d="m18.828 18.301c0.199-0.274 0.199-0.551 0-0.824-0.195-0.239-0.39-0.219-0.59 0.058-0.234 0.274-0.234 0.512 0 0.707 0.239 0.235 0.434 0.258 0.59 0.059z" inkscape:connector-curvature="0"/>
      <path id="path206" style="fill-rule:evenodd;fill:#f98b0e" d="m20.008 17.242c-0.039-0.551-0.196-0.906-0.473-1.062-0.273-0.157-0.43-0.039-0.469 0.351-0.039 0.317 0.098 0.571 0.411 0.77 0.355 0.234 0.531 0.215 0.531-0.059z" inkscape:connector-curvature="0"/>
      <path id="path208" style="fill-rule:evenodd;fill:#f98b0e" d="m18.652 15.648c-0.277-0.902-0.511-1.253-0.707-1.058-0.156 0.156-0.117 0.414 0.117 0.765 0.239 0.352 0.434 0.45 0.59 0.293z" inkscape:connector-curvature="0"/>
      <path id="path210" style="fill-rule:evenodd;fill:#f98b0e" d="m16.824 13.703c0.039-0.312-0.019-0.547-0.176-0.707-0.195-0.195-0.414-0.195-0.648 0-0.273 0.16-0.215 0.414 0.176 0.77 0.394 0.312 0.609 0.293 0.648-0.063z" inkscape:connector-curvature="0"/>
      <path id="path212" style="fill-rule:evenodd;fill:#f98b0e" d="m14.762 12.172c0.668 0.039 0.906-0.098 0.707-0.41-0.235-0.278-0.547-0.414-0.942-0.414-0.355 0.039-0.472 0.175-0.355 0.414 0.121 0.234 0.316 0.371 0.59 0.41z" inkscape:connector-curvature="0"/>
      <path id="path214" style="fill-rule:evenodd;fill:#f98b0e" d="m12.051 11.348c0.472-0.118 0.453-0.293-0.059-0.532-0.508-0.273-0.883-0.332-1.117-0.175-0.238 0.156-0.199 0.332 0.117 0.531 0.274 0.234 0.629 0.293 1.059 0.176z" inkscape:connector-curvature="0"/>
      <path id="path216" style="fill-rule:evenodd;fill:#f98b0e" d="m10.461 10.934c0.234-0.079 0.215-0.215-0.059-0.411-0.273-0.156-0.531-0.156-0.765 0-0.278 0.157-0.297 0.293-0.059 0.411 0.195 0.078 0.488 0.078 0.883 0z" inkscape:connector-curvature="0"/>
      <path id="path218" style="fill-rule:evenodd;fill:#f98b0e" d="m7.691 11.582c0.079-0.234 0.059-0.414-0.058-0.531-0.156-0.156-0.317-0.137-0.473 0.058-0.156 0.161-0.117 0.317 0.117 0.473 0.2 0.16 0.336 0.16 0.414 0z" inkscape:connector-curvature="0"/>
      <path id="path220" style="fill-rule:evenodd;fill:#f98b0e" d="m5.395 15c0.312-0.312 0.41-0.57 0.293-0.766-0.157-0.234-0.313-0.234-0.469 0-0.121 0.157-0.141 0.356-0.059 0.59 0.035 0.235 0.113 0.297 0.235 0.176z" inkscape:connector-curvature="0"/>
      <path id="path222" style="fill-rule:evenodd;fill:#f7700b" d="m22.895 13.703c0-0.629-0.157-1-0.469-1.117-0.356-0.117-0.492 0.078-0.414 0.59 0.039 0.469 0.195 0.765 0.472 0.883 0.235 0.156 0.371 0.039 0.411-0.356z" inkscape:connector-curvature="0"/>
      <path id="path224" style="fill-rule:evenodd;fill:#f7700b" d="m22.129 11.938c0.551-0.04 0.629-0.235 0.238-0.59-0.394-0.391-0.668-0.493-0.828-0.293-0.078 0.156-0.059 0.351 0.059 0.586 0.16 0.238 0.336 0.336 0.531 0.297z" inkscape:connector-curvature="0"/>
      <path id="path226" style="fill-rule:evenodd;fill:#f7700b" d="m20.125 10.406c0.199-0.117 0.156-0.297-0.117-0.531-0.274-0.277-0.473-0.336-0.59-0.18-0.156 0.16-0.137 0.336 0.059 0.532 0.199 0.238 0.414 0.296 0.648 0.179z" inkscape:connector-curvature="0"/>
      <path id="path228" style="fill-rule:evenodd;fill:#f7700b" d="m18.535 10.168c0.313-0.039 0.395-0.234 0.235-0.59-0.196-0.351-0.469-0.469-0.825-0.351-0.312 0.117-0.371 0.293-0.175 0.531 0.195 0.273 0.449 0.41 0.765 0.41z" inkscape:connector-curvature="0"/>
      <path id="path230" style="fill-rule:evenodd;fill:#f7700b" d="m13.938 7.691c0.433-0.117 0.648-0.214 0.648-0.293l-0.176-0.293c-0.156-0.199-0.277-0.296-0.355-0.296-0.157-0.039-0.391 0.019-0.707 0.179-0.352 0.157-0.434 0.332-0.235 0.528 0.196 0.199 0.473 0.257 0.825 0.175z" inkscape:connector-curvature="0"/>
      <path id="path232" style="fill-rule:evenodd;fill:#f7700b" d="m15.176 8.402c0.351-0.039 0.492-0.16 0.414-0.355-0.082-0.195-0.278-0.254-0.59-0.176-0.273 0.078-0.375 0.195-0.297 0.352 0.078 0.199 0.238 0.257 0.473 0.179z" inkscape:connector-curvature="0"/>
      <path id="path234" style="fill-rule:evenodd;fill:#f7700b" d="m23.25 18.656c0.195-0.511 0.176-0.886-0.059-1.121-0.234-0.234-0.433-0.195-0.589 0.117-0.118 0.278-0.059 0.571 0.175 0.883 0.239 0.317 0.395 0.356 0.473 0.121z" inkscape:connector-curvature="0"/>
      <path id="path236" style="fill-rule:evenodd;fill:#f7700b" d="m21.48 22.957c0.317-0.395 0.395-0.668 0.239-0.824-0.196-0.199-0.414-0.16-0.649 0.117-0.238 0.273-0.277 0.531-0.117 0.766 0.156 0.238 0.332 0.218 0.527-0.059z" inkscape:connector-curvature="0"/>
      <path id="path238" style="fill-rule:evenodd;fill:#d66915" d="m21.188 6.043c0.39-0.391 0.312-0.668-0.235-0.824-0.551-0.117-0.906-0.078-1.062 0.117-0.157 0.195-0.059 0.434 0.293 0.707 0.394 0.316 0.73 0.316 1.004 0z" inkscape:connector-curvature="0"/>
      <path id="path240" style="fill-rule:evenodd;fill:#d66915" d="m18.828 4.863c0.317-0.39 0.117-0.551-0.59-0.468-0.113 0.078-0.078 0.234 0.121 0.468 0.196 0.199 0.352 0.199 0.469 0z" inkscape:connector-curvature="0"/>
      <path id="path242" style="fill-rule:evenodd;fill:#d66915" d="m15.117 5.453c0.512-0.273 0.59-0.488 0.235-0.648-0.313-0.117-0.629-0.098-0.942 0.058-0.273 0.078-0.297 0.258-0.058 0.532 0.195 0.234 0.449 0.257 0.765 0.058z" inkscape:connector-curvature="0"/>
      <path id="path244" style="fill-rule:evenodd;fill:#d66915" d="m24.191 9.578c0.512-0.039 0.668-0.234 0.473-0.586-0.156-0.394-0.434-0.512-0.824-0.355-0.317 0.117-0.395 0.316-0.238 0.59 0.121 0.273 0.316 0.39 0.589 0.351z" inkscape:connector-curvature="0"/>
      <path id="path246" style="fill-rule:evenodd;fill:#d66915" d="m27.434 13.527c0-0.589-0.118-0.941-0.356-1.058-0.234-0.121-0.41 0-0.527 0.351-0.039 0.274 0.097 0.512 0.414 0.707 0.312 0.239 0.469 0.239 0.469 0z" inkscape:connector-curvature="0"/>
      <path id="path248" style="fill-rule:evenodd;fill:#d66915" d="m27.375 17.418c0.039-0.59-0.039-0.906-0.234-0.945-0.239 0-0.414 0.179-0.532 0.531-0.117 0.316-0.019 0.531 0.293 0.648 0.317 0.118 0.473 0.039 0.473-0.234z" inkscape:connector-curvature="0"/>
      <path id="path250" style="fill-rule:evenodd;fill:#d66915" d="m26.551 21.836c0.234-0.547 0.195-0.844-0.117-0.883-0.278-0.039-0.454 0.156-0.532 0.59-0.039 0.316 0.039 0.512 0.235 0.59 0.195 0.039 0.336-0.059 0.414-0.297z" inkscape:connector-curvature="0"/>
      <path id="path252" style="fill-rule:evenodd;fill:#d66915" d="m26.375 20.188c0.195-0.59 0.156-0.883-0.117-0.883-0.278 0.039-0.453 0.234-0.531 0.59-0.039 0.312 0.039 0.507 0.234 0.585 0.195 0.082 0.332-0.019 0.414-0.292z" inkscape:connector-curvature="0"/>
      <path id="path254" style="fill-rule:evenodd;fill:#ffffff" d="m11.285 15.059c0.356-0.352 0.434-0.59 0.238-0.707-0.16-0.118-0.394-0.079-0.711 0.117-0.273 0.156-0.292 0.316-0.058 0.472 0.199 0.2 0.375 0.239 0.531 0.118z" inkscape:connector-curvature="0"/>
      <path id="path256" style="fill-rule:evenodd;fill:#ffffff" d="m7.219 19.184c0.039-0.157 0.019-0.293-0.059-0.411-0.078-0.117-0.195-0.156-0.351-0.117-0.157 0.039-0.141 0.176 0.058 0.41 0.195 0.239 0.313 0.278 0.352 0.118z" inkscape:connector-curvature="0"/>
      <path id="path258" style="fill-rule:evenodd;fill:#ffffff" d="m6.336 20.246c0.117-0.078 0.156-0.176 0.117-0.293-0.039-0.082-0.137-0.098-0.293-0.058-0.117 0.039-0.14 0.117-0.058 0.234 0.078 0.156 0.156 0.195 0.234 0.117z" inkscape:connector-curvature="0"/>
      <path id="path260" style="fill-rule:evenodd;fill:#ffffff" d="m13.113 21.309c0.274-0.2 0.356-0.356 0.235-0.473-0.157-0.117-0.332-0.137-0.528-0.059-0.16 0.078-0.179 0.196-0.062 0.352 0.121 0.199 0.238 0.258 0.355 0.18z" inkscape:connector-curvature="0"/>
      <path id="path262" style="fill-rule:evenodd;fill:#ffffff" d="m12.582 22.605c0.238-0.043 0.336-0.14 0.297-0.296-0.082-0.118-0.199-0.137-0.356-0.059-0.273 0.234-0.253 0.355 0.059 0.355z" inkscape:connector-curvature="0"/>
      <path id="path264" style="fill-rule:evenodd;fill:#ffffff" d="m14.703 15.945c0.238-0.039 0.238-0.179 0-0.414-0.234-0.234-0.391-0.293-0.469-0.176-0.078 0.079-0.062 0.196 0.059 0.352 0.156 0.199 0.293 0.277 0.41 0.238z" inkscape:connector-curvature="0"/>
    </g>
  </g>
<metadata><rdf:RDF><cc:Work><dc:format>image/svg+xml</dc:format><dc:type rdf:resource="http://purl.org/dc/dcmitype/StillImage"/><cc:license rdf:resource="http://creativecommons.org/licenses/publicdomain/"/><dc:publisher><cc:Agent rdf:about="http://openclipart.org/"><dc:title>Openclipart</dc:title></cc:Agent></dc:publisher></cc:Work><cc:License rdf:about="http://creativecommons.org/licenses/publicdomain/"><cc:permits rdf:resource="http://creativecommons.org/ns#Reproduction"/><cc:permits rdf:resource="http://creativecommons.org/ns#Distribution"/><cc:permits rdf:resource="http://creativecommons.org/ns#DerivativeWorks"/></cc:License></rdf:RDF></metadata></svg>
